<svg width="96" height="96" viewBox="0 0 96 96" fill="none" xmlns="http://www.w3.org/2000/svg">
<path d="M30 88C26.1333 88 22.8333 86.6333 20.1 83.9C17.3667 81.1667 16 77.8667 16 74V22C16 18.1333 17.3667 14.8333 20.1 12.1C22.8333 9.36667 26.1333 8 30 8H72C74.2 8 76.0833 8.78333 77.65 10.35C79.2167 11.9167 80 13.8 80 16V66.1C80 66.6333 79.7833 67.1167 79.35 67.55C78.9167 67.9833 78.1333 68.4667 77 69C76.0667 69.4667 75.3333 70.1333 74.8 71C74.2667 71.8667 74 72.8667 74 74C74 75.1333 74.2667 76.15 74.8 77.05C75.3333 77.95 76.0667 78.6 77 79C77.9333 79.4 78.6667 79.95 79.2 80.65C79.7333 81.35 80 82.1 80 82.9V83.9C80 85.0333 79.6167 86 78.85 86.8C78.0833 87.6 77.1333 88 76 88H30ZM36 60C37.1333 60 38.0833 59.6167 38.85 58.85C39.6167 58.0833 40 57.1333 40 56V20C40 18.8667 39.6167 17.9167 38.85 17.15C38.0833 16.3833 37.1333 16 36 16C34.8667 16 33.9167 16.3833 33.15 17.15C32.3833 17.9167 32 18.8667 32 20V56C32 57.1333 32.3833 58.0833 33.15 58.85C33.9167 59.6167 34.8667 60 36 60ZM30 80H67.3C66.9 79.0667 66.5833 78.1167 66.35 77.15C66.1167 76.1833 66 75.1333 66 74C66 72.9333 66.1 71.9 66.3 70.9C66.5 69.9 66.8333 68.9333 67.3 68H30C28.2667 68 26.8333 68.5833 25.7 69.75C24.5667 70.9167 24 72.3333 24 74C24 75.7333 24.5667 77.1667 25.7 78.3C26.8333 79.4333 28.2667 80 30 80Z" fill="#636C76"/>
</svg>
